<svg xmlns="http://www.w3.org/2000/svg" viewBox="0 0 462 160"><defs><style>.cls-1{fill:#cf1e2f;}.cls-2{fill:#1b438b;}</style></defs><g id="equitas"><path class="cls-1" d="M171.6,159.9v-6.6h0a4.59,4.59,0,0,1-3.7,1.8c-4,0-5.4-3.2-5.4-6.7s1.4-6.6,5.4-6.6a4.17,4.17,0,0,1,3.9,2.1h0V142H175v17.9Zm-5.7-11.6c0,1.8.6,4.1,2.8,4.1s2.9-2.3,2.9-4.1-.8-4-3-4S165.9,146.6,165.9,148.3Zm254.6,2.9a3.72,3.72,0,0,1,2.2-3.6,9.08,9.08,0,0,1,4.3-.7h1.8c0-2-.9-2.7-2.9-2.7a6.21,6.21,0,0,0-3.9,1.4l-.1-2.8a13.41,13.41,0,0,1,4.4-1c3.9,0,5.5,1.6,5.5,5.4V152a24.58,24.58,0,0,0,.2,2.8h-3a12.1,12.1,0,0,1-.1-1.9h0a4.45,4.45,0,0,1-3.9,2.2,4,4,0,0,1-4.4-3.6C420.5,151.3,420.5,151.3,420.5,151.2Zm3.1-.2c0,1.1.9,1.6,2.1,1.6a2.84,2.84,0,0,0,2.3-1.1,4.1,4.1,0,0,0,.7-2.6h-1.4c-1.5-.1-3.7.2-3.7,2.1Zm-38.8-2.6a6,6,0,0,1,5.1-6.7h.8c4.7,0,6.1,3.2,6.1,7.7H388a3.33,3.33,0,0,0,3.4,3.2h.2a9,9,0,0,0,4.2-1.3V154a8.39,8.39,0,0,1-4.4,1,6.05,6.05,0,0,1-6.6-5.4Zm3.2-1.3h5.6c-.1-1.6-.8-3-2.7-3a2.82,2.82,0,0,0-2.9,2.8C387.9,147,387.9,147,388,147.1Zm-14.2,1.2a6.11,6.11,0,0,1,5.4-6.6h.7a11.24,11.24,0,0,1,3.2.4l-.3,2.6a5.85,5.85,0,0,0-2.2-.5c-2,0-3.4,1.6-3.4,4s1.1,4.2,3.4,4.2a5.42,5.42,0,0,0,2.5-.6l.1,2.7a9.35,9.35,0,0,1-3.3.4,6,6,0,0,1-6.3-5.7A1.34,1.34,0,0,0,373.8,148.3ZM345,151.2a3.72,3.72,0,0,1,2.2-3.6,9.08,9.08,0,0,1,4.3-.7h1.8c0-2-.9-2.7-2.9-2.7a6.21,6.21,0,0,0-3.9,1.4l-.1-2.8a13.41,13.41,0,0,1,4.4-1c3.9,0,5.5,1.6,5.5,5.4V152a24.58,24.58,0,0,0,.2,2.8h-2.9c-.1-.6-.1-1.3-.2-1.9h0a4.45,4.45,0,0,1-3.9,2.2,4,4,0,0,1-4.4-3.6C345,151.3,345,151.3,345,151.2Zm3.2-.2c0,1.1.9,1.6,2.1,1.6a2.84,2.84,0,0,0,2.3-1.1,4.1,4.1,0,0,0,.7-2.6h-1.4c-1.5-.1-3.7.2-3.7,2.1Zm-71.8.2a3.72,3.72,0,0,1,2.2-3.6,9.08,9.08,0,0,1,4.3-.7h1.8c0-2-.9-2.7-2.9-2.7a6.21,6.21,0,0,0-3.9,1.4l-.1-2.8a13.41,13.41,0,0,1,4.4-1c3.9,0,5.5,1.6,5.5,5.4V152c0,1,.1,1.9.1,2.8h-2.9c-.1-.6-.1-1.3-.2-1.9h0a4.45,4.45,0,0,1-3.9,2.2,4,4,0,0,1-4.4-3.7Zm3.1-.2c0,1.1.9,1.6,2.1,1.6a2.84,2.84,0,0,0,2.3-1.1,4.1,4.1,0,0,0,.7-2.6h-1.4c-1.5-.1-3.7.2-3.7,2.1Zm-38,3.3.3-3.1a8.78,8.78,0,0,0,3.9,1.1c1.3,0,3.1-.7,3.1-2.2,0-3.3-7.6-1.9-7.6-7.6,0-3.8,3-5.3,6-5.3a14,14,0,0,1,4.1.6l-.3,2.8a8.42,8.42,0,0,0-3.5-.7,2.37,2.37,0,0,0-2.7,2.1v.3c0,3,7.6,1.7,7.6,7.5,0,3.8-3,5.2-6.5,5.2a13.08,13.08,0,0,1-4.4-.7Zm-18.6.2.2-2.7a7.31,7.31,0,0,0,3.3.8c.8,0,2.2-.3,2.2-1.6,0-2.5-5.8-.8-5.8-5.4,0-2.7,2.4-4,5-4a14.87,14.87,0,0,1,3.6.5l-.2,2.5a7.58,7.58,0,0,0-3-.5c-.9,0-2,.3-2,1.4,0,2,5.8.7,5.8,5.3,0,3-2.6,4.2-5.3,4.2a16.52,16.52,0,0,1-3.8-.5Zm-13.8-3.3a3.72,3.72,0,0,1,2.2-3.6,9.08,9.08,0,0,1,4.3-.7h1.8c0-2-.9-2.7-2.9-2.7a6.21,6.21,0,0,0-3.9,1.4l-.1-2.8a13.41,13.41,0,0,1,4.4-1c3.9,0,5.5,1.6,5.5,5.4V152a24.58,24.58,0,0,0,.2,2.8h-2.9c-.1-.6-.1-1.3-.2-1.9h0a4.45,4.45,0,0,1-3.9,2.2,4,4,0,0,1-4.4-3.6C209.1,151.3,209.1,151.3,209.1,151.2Zm3.2-.2c0,1.1.9,1.6,2.1,1.6a2.84,2.84,0,0,0,2.3-1.1,4.1,4.1,0,0,0,.7-2.6H216c-1.5-.1-3.7.2-3.7,2.1Zm-10.9-.1v-6.5H199V142h2.4v-2.6l3.3-1V142h2.9v2.4h-2.9v5.9c0,1.1.3,2.1,1.6,2.1a4,4,0,0,0,1.5-.3l.1,2.6a9.86,9.86,0,0,1-2.4.3,3.65,3.65,0,0,1-4-3.4,1.7,1.7,0,0,1-.1-.7Zm-23.1-.9v-8h3.3v6.8c0,1.6,0,3.7,2.1,3.7,2.4,0,2.9-2.6,2.9-4.2V142h3.3v12.7h-3.1V153h0a5.17,5.17,0,0,1-4.2,2c-3,0-4.3-2.1-4.3-5Zm279.5,4.7-4.2-6.2h-.1v6.2h-3.3V136.2h3.3v10.9h.1l3.9-5.1h3.9l-4.7,5.7,5.3,7Zm-14.4,0v-6.8c0-1.6,0-3.7-2.1-3.7-2.4,0-2.9,2.6-2.9,4.2v6.2H435V142h3.1v1.7h.1a4.79,4.79,0,0,1,4.2-2c3,0,4.3,2.1,4.3,5v8Zm-36.9,0V137.5h6c2.2,0,5.6.6,5.6,4.4a4,4,0,0,1-3.4,3.9h0a3.9,3.9,0,0,1,3.9,3.9c0,4.3-3.9,5-6.1,5ZM410,152h1.6c1.6,0,3.6-.4,3.6-2.4,0-2.2-1.8-2.6-3.6-2.6H410Zm0-7.6h1.4c1.5,0,3.3-.3,3.3-2.1,0-2-1.8-2.1-3.3-2.1H410Zm-42.1,10.3v-6.8c0-1.6,0-3.7-2.1-3.7-2.4,0-2.9,2.6-2.9,4.2v6.2h-3.3V142h3.1v1.7h.1a4.79,4.79,0,0,1,4.2-2c3,0,4.3,2.1,4.3,5v8Zm-28.8,0v-6.8c0-1.6,0-3.7-2.1-3.7-2.4,0-2.9,2.6-2.9,4.2v6.2h-3.3V142h3.1v1.7h.1a4.79,4.79,0,0,1,4.2-2c3,0,4.3,2.1,4.3,5v8Zm-15.2,0V142h3.3v12.7Zm-12.1,0V137.5h9.6v2.7h-6.1v4.3h5.8v2.7h-5.8v7.6h-3.5Zm-14,0V136.2h3.3v18.5Zm-6.8,0V136.2h3.3v18.5Zm-20.5,0v-7.6c0-1.2,0-2.9-1.9-2.9-2.2,0-2.5,2.6-2.5,4.3v6.2h-3.3v-7.6c0-1.2,0-2.9-1.9-2.9-2.2,0-2.5,2.6-2.5,4.3v6.2h-3.3V142h3.1v1.8h0a4.41,4.41,0,0,1,3.8-2.1,4,4,0,0,1,3.8,2.2,4.3,4.3,0,0,1,4-2.2c3.1,0,4,2.1,4,5v8Zm-77,0V142h3.3v12.7Zm-43.7,0V137.5H160v2.7h-6.7v4.3h6.1v2.7h-6.1V152h6.8v2.7Zm174.1-15v-3.2h3.3v3.2Zm-130.4,0v-3.2h3.3v3.2Z"/><path class="cls-2" d="M124.8,160V121.1H74.9V58.7h62.4V160ZM87.4,108.6h37.5V71.2H87.4Zm137.3,12.5V58.7h12.5v62.4Zm174.8,0V108.6h49.9V96.2H399.5V58.7h62.4V71.2H412V83.7h49.9v37.5Zm-74.9,0V83.7H362V96.2H337v12.5h37.5V71.2H324.6V58.7H387v62.4Zm-74.9,0V21.2h12.5V58.7h49.9V71.2l-49.9-.1v.1h0v37.5h49.9v12.5H249.7Zm-99.9,0V58.7h12.5v49.9h37.5V58.7h12.5v62.4ZM0,58.7H62.4V96.1H25V83.7H50V71.2H12.5v37.4H62.4v12.5H0Z"/><path class="cls-1" d="M188.3,0h12.8c6.2.2,12.4.5,18.6,1,5,.4,10,1,15,1.7,6.6.9,13.1,2,19.6,3.3,5.3,1.1,10.6,2.3,15.8,3.7,6.4,1.7,12.8,3.5,19.1,5.6q11.25,3.75,22.2,8.4a299.41,299.41,0,0,1,41,21.1,39.56,39.56,0,0,1,3.4,2.2c-1.8-.8-3.6-1.7-5.5-2.5-9.9-4.4-20-8.4-30.3-11.9-8.9-3-17.8-5.7-26.9-8.1-7.2-1.9-14.4-3.5-21.6-5-6.9-1.4-13.8-2.5-20.7-3.5-8.5-1.2-17-2.1-25.5-2.8-13.4-1-26.9-1.4-40.4-1.1-7.4.2-14.7.6-22.1,1.2-6.4.5-12.9,1.2-19.3,2-5.4.7-10.7,1.5-16,2.4-10.7,1.8-21.2,4.1-31.7,6.9q-14,3.6-27.6,8.4c-11.4,4-22.6,8.5-33.6,13.6a3.55,3.55,0,0,0-.9.4h0v-.1c3.2-2.1,6.5-4.1,9.8-6,6.1-3.6,12.4-6.9,18.8-10A299.66,299.66,0,0,1,94.9,17.2c8.2-2.9,16.4-5.4,24.8-7.6,6.9-1.8,13.8-3.3,20.8-4.6,4.2-.8,8.5-1.5,12.8-2.1,5.1-.7,10.3-1.3,15.4-1.8C175.2.5,181.8.2,188.3,0"/></g></svg>